# xmcd
#
# Track frame offsets:
#  150
#  17080
#  38597
#  51760
#  70252
#  83820
#  103490
#  105609
#  119814
#  139343
#  155417
#  175866
#  190936
#  206455
#
# Disc length: 2905 seconds
#
# Revision: 0
# Processed by: cddbd v1.5.2PL0 Copyright (c) Steve Scherf et al.
# Submitted via: Collectorz.com_Music_Collector 6.10
#
DISCID=c60b570e
DTITLE=Ole Paus - Den Store Norske Sangboka
DYEAR=2007
DGENRE=Norsk
TTITLE0=Vandringsvise
TTITLE1=Manda' Morra Blues
TTITLE2=Jeg Hadde Tenkt
TTITLE3=La Oss Leve For Hverandre
TTITLE4=Sjømannsvise
TTITLE5=Splitter Pine
TTITLE6=Syng Og Vær Glad
TTITLE7=Ellinors Vise
TTITLE8=En Grønnmalt Benk I Haven
TTITLE9=En Spennende Dag For Josefine
TTITLE10=Kokken Tor
TTITLE11=Den Som Var En Løvetann
TTITLE12=De Nære Ting
TTITLE13=Øl
EXTD=
EXTT0=
EXTT1=
EXTT2=
EXTT3=
EXTT4=
EXTT5=
EXTT6=
EXTT7=
EXTT8=
EXTT9=
EXTT10=
EXTT11=
EXTT12=
EXTT13=
PLAYORDER=
